<svg xmlns="http://www.w3.org/2000/svg" enable-background="new 0 0 32 32" viewBox="0 0 32 32" id="java">
  <path fill="#FFF9DD" d="M26,32H6c-3.314,0-6-2.686-6-6V6c0-3.314,2.686-6,6-6h20c3.314,0,6,2.686,6,6v20C32,29.314,29.314,32,26,32z"></path>
  <path fill="#FFD200" d="M10.96,22.883c6.315,1.035,11.51-0.467,9.872-1.213c0,0,0.448,0.373-0.492,0.661c-1.788,0.548-7.441,0.713-9.01,0.022c-0.564-0.249,0.494-0.593,0.827-0.665c0.347-0.076,0.546-0.062,0.546-0.062C12.074,21.177,8.644,22.503,10.96,22.883z"></path>
  <path fill="#FFD200" d="M21.834 22.484c0 0-.199.517-2.355.927-2.431.463-5.431.409-7.209.112 0-.001.365.305 2.236.426C17.355 24.134 21.73 23.847 21.834 22.484zM18.13 19.033c-1.831.357-2.888.345-4.227.205-1.035-.109-.357-.616-.357-.616-2.679.899 1.492 1.919 5.235.812C18.383 19.292 18.13 19.033 18.13 19.033zM19.372 19.723c-.013.037-.059.078-.059.079 3.964-1.054 2.507-3.715.612-3.041-.167.06-.254.198-.254.198s.106-.043.34-.092C20.968 16.663 22.341 18.163 19.372 19.723z"></path>
  <path fill="#FFE777" d="M14.162,13.085c-0.738,1.121,0.363,2.324,1.861,3.693c-0.585-1.336-2.567-2.506,0.001-4.557C19.227,9.663,17.583,8,17.583,8C18.247,10.641,15.245,11.439,14.162,13.085z"></path>
  <path fill="#FFE777" d="M19.565 11.268c0-.001-5.416 1.367-2.829 4.382.763.889-.2 1.689-.2 1.689s1.937-1.012 1.047-2.279C16.752 13.879 16.114 13.292 19.565 11.268zM13.924 20.374c-2.432.687 1.479 2.108 4.577.766-.507-.2-.871-.431-.871-.431-1.381.265-2.022.286-3.275.141C13.32 20.729 13.924 20.374 13.924 20.374z"></path>
  <path fill="#FFD200" d="M18.662,17.78c0.304-0.21,0.724-0.391,0.724-0.391s-1.194,0.217-2.385,0.318c-1.456,0.123-3.02,0.147-3.803,0.041c-1.858-0.251,1.018-0.941,1.018-0.941s-1.117-0.076-2.489,0.595C10.102,18.195,15.742,18.557,18.662,17.78z"></path>
</svg>
